<svg id="svg" version="1.1" width="1024" height="1024" viewBox="0 0 1024 1024" xmlns="http://www.w3.org/2000/svg"><path d="M123.500 27.554 C 109.382 30.541,96.167 35.503,84.648 42.142 C 71.955 49.457,65.655 54.458,55.160 65.548 C 35.330 86.501,25.343 107.141,20.588 137.000 C 19.042 146.702,18.938 175.669,19.212 518.000 C 19.494 868.777,19.605 889.006,21.296 898.000 C 26.677 926.620,37.522 947.268,58.069 968.009 C 62.337 972.317,67.104 976.643,68.664 977.622 C 70.224 978.602,73.075 980.591,75.000 982.043 C 82.834 987.949,102.443 996.909,114.324 1000.011 C 134.968 1005.400,108.889 1005.090,515.000 1004.774 L 889.500 1004.482 900.500 1001.305 C 916.428 996.704,924.701 993.272,938.469 985.554 C 945.462 981.633,950.000 977.991,959.076 969.013 C 978.682 949.619,989.006 931.886,995.760 906.000 L 998.500 895.500 998.500 515.000 L 998.500 134.500 995.764 124.000 C 992.125 110.038,988.020 99.333,983.183 91.191 C 968.915 67.177,948.327 47.929,926.000 37.728 C 917.264 33.737,903.786 29.135,898.668 28.395 C 896.376 28.064,892.281 27.164,889.568 26.396 C 885.384 25.212,827.823 25.017,509.568 25.114 L 134.500 25.228 123.500 27.554 M470.668 180.250 C 471.100 180.938,471.481 190.725,471.514 202.000 L 471.574 222.500 474.722 229.223 C 478.547 237.393,485.724 245.302,492.480 248.794 C 496.655 250.951,499.183 251.455,507.500 251.787 C 515.954 252.124,518.389 251.851,523.247 250.022 C 530.227 247.394,538.564 240.060,542.210 233.339 C 545.994 226.365,547.004 218.835,546.883 198.522 C 546.795 183.778,547.038 180.379,548.233 179.625 C 550.534 178.173,585.599 184.968,602.500 190.140 C 641.724 202.143,675.960 218.579,704.000 238.867 C 737.907 263.401,764.242 290.390,790.485 327.500 C 800.421 341.550,816.720 372.392,822.987 389.000 C 824.751 393.675,827.000 399.525,827.984 402.000 C 833.793 416.602,843.994 460.115,844.004 470.331 C 844.006 472.624,844.718 478.775,845.587 484.000 C 847.478 495.383,847.818 533.301,846.112 542.513 C 845.499 545.820,844.559 553.135,844.022 558.770 C 841.804 582.045,832.302 619.021,823.532 638.500 C 822.789 640.150,820.719 644.875,818.932 649.000 C 795.735 702.532,762.887 744.677,715.500 781.706 C 703.781 790.863,685.085 803.415,677.500 807.217 C 674.200 808.871,670.825 810.810,670.000 811.525 C 662.550 817.985,615.658 836.494,594.000 841.523 C 590.975 842.226,585.575 843.503,582.000 844.362 C 573.017 846.520,553.069 850.020,549.817 850.009 C 546.285 849.997,545.649 847.773,546.429 838.160 C 546.771 833.947,546.658 824.200,546.179 816.500 C 545.431 804.465,544.948 801.798,542.742 797.500 C 539.308 790.812,532.808 784.469,525.500 780.673 C 519.915 777.773,518.774 777.556,509.000 777.529 C 498.828 777.501,498.314 777.608,492.536 780.946 C 484.073 785.835,479.275 790.511,475.938 797.123 C 471.857 805.207,470.680 814.464,471.342 833.253 C 471.836 847.256,471.713 849.173,470.284 849.721 C 468.349 850.464,443.279 846.039,426.500 841.994 C 398.427 835.226,361.408 819.949,338.500 805.679 C 334.100 802.938,326.813 798.401,322.308 795.598 C 310.231 788.083,291.132 772.988,278.029 760.601 C 249.018 733.176,226.472 702.959,208.563 667.500 C 201.306 653.130,199.335 648.913,195.012 638.500 C 188.516 622.853,179.685 591.251,176.849 573.500 C 175.794 566.900,174.396 558.125,173.742 554.000 C 172.989 549.257,172.569 534.369,172.599 513.500 C 172.643 482.650,172.820 479.425,175.317 464.000 C 179.487 438.238,183.612 422.006,191.197 401.500 C 200.741 375.702,205.535 365.744,222.896 335.653 C 225.734 330.732,238.897 312.382,246.676 302.500 C 256.212 290.385,273.785 272.303,287.388 260.607 C 335.723 219.049,385.470 194.940,449.500 182.040 C 465.454 178.826,469.555 178.479,470.668 180.250 M342.500 449.525 C 327.380 451.974,316.936 457.174,305.832 467.783 C 298.670 474.625,297.147 476.761,292.137 486.991 L 286.500 498.500 286.174 512.267 C 285.888 524.336,286.121 526.864,288.063 532.767 C 294.383 551.979,305.984 565.931,322.405 574.068 C 345.222 585.374,369.712 582.800,392.438 566.705 C 403.376 558.959,413.666 542.909,416.610 529.000 C 421.990 503.582,410.767 475.103,389.744 460.826 C 381.271 455.072,374.583 452.262,363.964 449.992 C 353.459 447.747,353.474 447.748,342.500 449.525 M649.679 451.022 C 627.141 457.663,608.750 475.828,603.129 497.000 C 599.808 509.512,599.525 517.228,602.001 527.776 C 606.899 548.638,618.234 563.697,635.998 572.938 C 660.104 585.480,685.500 583.268,707.500 566.711 C 717.597 559.113,725.358 548.400,728.981 537.060 C 734.773 518.928,733.820 502.918,725.970 486.500 C 718.308 470.475,705.687 459.079,688.585 452.745 C 681.641 450.174,678.806 449.699,668.500 449.382 C 658.645 449.078,655.281 449.372,649.679 451.022 M502.963 469.923 C 496.232 470.857,483.613 477.000,478.480 481.843 C 466.077 493.545,460.757 513.262,465.940 528.327 C 469.827 539.622,479.770 550.843,490.536 556.082 C 496.706 559.085,498.607 559.512,507.217 559.828 C 515.117 560.119,518.124 559.789,523.304 558.065 C 530.133 555.793,539.906 549.278,544.275 544.085 C 548.212 539.407,553.661 527.262,554.456 521.397 C 555.416 514.313,553.454 501.497,550.474 495.379 C 541.991 477.965,522.044 467.278,502.963 469.923 M516.096 495.534 C 521.571 497.466,524.555 500.237,527.599 506.217 C 531.701 514.276,530.140 523.762,523.718 529.795 C 519.637 533.629,512.162 536.294,507.343 535.634 C 502.420 534.959,496.324 532.124,493.805 529.338 C 491.199 526.457,488.041 518.843,488.066 515.500 C 488.120 508.162,493.737 499.346,500.500 495.988 C 505.297 493.606,510.224 493.462,516.096 495.534 " stroke="none" fill="black" fill-rule="evenodd"/></svg>