<svg id="svg" version="1.1" width="1024" height="1024" viewBox="0 0 1024 1024" xmlns="http://www.w3.org/2000/svg"><path d="M480.000 35.127 C 452.141 37.000,420.189 42.056,395.340 48.524 C 299.977 73.348,213.781 128.013,150.973 203.500 C 99.601 265.243,64.713 339.148,50.557 416.214 C 44.393 449.773,42.582 473.940,43.268 513.500 C 43.803 544.377,45.351 561.006,50.062 586.500 C 76.334 728.668,172.221 856.015,301.883 920.941 C 350.903 945.487,393.504 958.631,450.332 966.742 C 468.684 969.362,471.224 969.478,510.000 969.484 C 543.445 969.489,552.939 969.173,564.500 967.666 C 600.016 963.038,627.333 956.912,658.332 946.624 C 751.008 915.868,830.772 856.870,890.824 774.659 C 930.110 720.877,957.865 657.282,970.437 592.244 C 981.138 536.886,981.999 482.066,973.038 426.637 C 955.683 319.287,900.222 220.768,816.593 148.735 C 745.501 87.501,661.268 49.623,570.500 38.071 C 541.058 34.324,507.966 33.248,480.000 35.127 M545.372 72.503 C 587.963 75.957,629.292 85.463,667.891 100.683 C 724.936 123.176,772.376 154.357,816.065 198.075 C 864.582 246.623,898.920 301.972,920.555 366.500 C 928.432 389.993,932.223 404.919,935.975 427.213 C 945.186 481.953,945.001 529.510,935.368 582.500 C 924.284 643.478,896.217 707.340,858.457 757.500 C 838.234 784.364,803.170 821.037,780.000 839.560 C 713.393 892.804,639.460 923.227,553.800 932.637 C 532.686 934.957,489.076 934.957,468.000 932.637 C 386.027 923.617,312.374 894.138,249.500 845.184 C 187.057 796.566,137.208 730.942,109.172 660.448 C 80.190 587.579,72.261 504.334,86.648 424.000 C 93.781 384.168,107.299 344.340,126.478 306.642 C 162.179 236.470,221.293 173.208,289.000 132.714 C 366.927 86.108,455.792 65.237,545.372 72.503 M476.500 105.151 C 364.097 114.995,260.021 173.265,192.781 264.000 C 155.984 313.653,131.956 368.425,121.052 427.500 C 102.206 529.600,122.647 631.109,179.411 717.313 C 191.549 735.746,196.994 742.925,211.262 759.299 C 275.390 832.894,362.751 879.898,460.000 893.131 C 479.002 895.717,525.083 896.774,544.114 895.061 C 632.199 887.131,711.991 852.184,777.817 792.704 C 825.655 749.477,863.367 692.724,884.301 632.456 C 916.055 541.033,913.975 444.645,878.281 353.500 C 871.771 336.876,856.685 306.952,847.277 292.000 C 802.528 220.884,741.535 168.522,664.000 134.655 C 629.161 119.438,585.173 108.631,543.500 105.051 C 529.404 103.841,490.806 103.898,476.500 105.151 M539.109 214.849 C 572.388 223.670,599.607 245.280,614.243 274.500 C 646.272 338.446,614.788 416.342,548.000 438.397 C 533.721 443.112,523.780 444.388,506.623 443.706 C 484.746 442.836,468.358 437.850,450.241 426.551 C 410.272 401.623,388.784 351.190,398.484 305.078 C 403.801 279.799,414.610 260.181,432.766 242.854 C 449.005 227.357,471.027 216.324,492.168 213.092 C 502.763 211.473,530.252 212.502,539.109 214.849 M506.905 240.022 C 494.934 242.063,487.108 254.602,490.183 266.814 C 492.272 275.108,502.422 283.000,511.000 283.000 C 521.992 283.000,532.000 272.826,532.000 261.652 C 532.000 248.055,520.076 237.777,506.905 240.022 M548.822 263.250 C 548.495 270.505,547.842 273.724,545.792 278.175 C 542.317 285.724,536.378 291.974,528.752 296.110 C 522.721 299.380,522.110 299.500,511.484 299.500 C 501.078 299.500,500.103 299.320,493.862 296.250 C 480.938 289.893,473.916 278.858,473.181 263.750 C 472.947 258.938,472.561 255.000,472.324 255.000 C 470.703 255.000,456.343 266.880,451.998 271.817 C 447.162 277.311,439.897 287.224,440.362 287.694 C 440.468 287.800,442.474 287.456,444.821 286.929 C 461.206 283.247,482.181 297.641,486.988 315.865 C 493.841 341.849,472.328 367.910,445.856 365.691 L 438.958 365.113 444.196 372.690 C 451.448 383.180,456.847 388.955,465.466 395.442 C 469.528 398.499,472.997 400.998,473.175 400.995 C 473.354 400.992,473.511 396.380,473.524 390.745 C 473.547 381.397,473.819 379.931,476.634 374.000 C 483.634 359.253,497.273 351.177,513.426 352.214 C 527.390 353.110,539.693 361.676,545.791 374.747 C 548.171 379.847,548.477 381.707,548.488 391.139 L 548.500 401.778 554.411 397.639 C 565.554 389.837,575.438 379.482,581.747 369.000 L 583.854 365.500 574.677 365.432 C 561.813 365.338,555.629 362.812,546.909 354.091 C 537.919 345.102,535.470 339.030,535.580 326.000 C 535.680 314.070,537.995 307.649,545.051 299.732 C 548.700 295.638,552.216 293.014,557.653 290.327 C 564.550 286.918,565.912 286.600,573.597 286.600 C 578.219 286.600,582.000 286.434,582.000 286.230 C 582.000 285.280,575.743 276.931,571.465 272.172 C 567.332 267.575,551.092 254.000,549.726 254.000 C 549.458 254.000,549.051 258.163,548.822 263.250 M440.500 305.803 C 432.937 309.367,427.024 318.166,427.006 325.884 C 426.985 334.881,434.895 344.816,443.777 346.947 C 450.541 348.569,455.952 347.572,461.627 343.658 C 478.590 331.959,471.131 305.990,450.343 304.373 C 445.974 304.033,443.491 304.393,440.500 305.803 M567.205 305.130 C 562.110 306.599,554.414 314.644,552.990 319.990 C 548.699 336.094,563.828 351.355,579.817 347.049 C 585.104 345.626,591.701 339.844,594.134 334.500 C 597.519 327.069,596.048 318.272,590.370 311.988 C 584.066 305.010,575.953 302.608,567.205 305.130 M504.500 370.008 C 493.206 373.522,486.304 389.409,491.404 400.155 C 501.494 421.419,532.000 414.533,532.000 390.992 C 532.000 377.080,517.452 365.979,504.500 370.008 M336.438 392.154 C 337.831 392.788,339.897 395.221,341.028 397.559 C 343.013 401.658,343.316 401.850,349.519 402.930 C 363.605 405.383,377.900 411.262,388.913 419.132 C 391.890 421.259,394.744 423.000,395.255 423.000 C 395.766 423.000,397.329 422.100,398.727 421.000 C 401.479 418.836,406.949 418.367,410.055 420.030 C 415.068 422.712,416.145 431.088,412.040 435.458 C 410.125 437.496,410.144 437.562,414.641 444.506 C 423.360 457.968,428.507 470.760,431.027 485.234 C 432.073 491.243,432.360 491.728,435.542 492.879 C 445.678 496.544,445.204 508.541,434.779 512.216 C 432.671 512.959,431.932 514.001,431.499 516.838 C 429.072 532.733,423.044 548.417,414.900 560.027 L 410.667 566.062 412.833 569.917 C 416.282 576.052,415.268 581.229,410.010 584.335 C 406.079 586.657,403.211 586.418,398.865 583.406 L 395.122 580.812 388.811 585.288 C 377.301 593.452,361.345 600.063,349.619 601.528 C 344.351 602.187,343.777 602.517,342.065 605.870 C 337.001 615.793,327.675 616.156,323.054 606.611 C 321.368 603.128,320.263 602.000,318.539 602.000 C 314.331 602.000,297.547 597.268,290.628 594.131 C 286.861 592.423,280.469 588.770,276.424 586.013 C 272.378 583.256,268.780 581.000,268.428 581.000 C 268.077 581.000,266.452 582.125,264.818 583.500 C 260.567 587.077,256.589 586.789,252.400 582.600 C 248.263 578.463,248.004 574.930,251.466 569.835 L 253.932 566.206 250.828 561.921 C 241.802 549.462,235.946 535.721,234.005 522.450 L 232.842 514.496 227.890 511.731 C 221.723 508.288,220.237 505.134,222.148 499.551 C 223.216 496.431,224.476 495.101,228.145 493.220 C 232.622 490.924,232.814 490.641,233.474 485.365 C 235.120 472.190,240.764 457.746,249.412 444.580 L 253.835 437.845 251.417 434.283 C 247.667 428.757,248.663 423.260,253.907 420.548 C 257.627 418.624,260.761 418.602,264.000 420.476 C 265.375 421.271,267.030 422.200,267.679 422.540 C 268.327 422.881,271.686 421.281,275.143 418.984 C 287.796 410.580,298.984 405.931,313.440 403.071 C 321.120 401.551,321.447 401.370,323.440 397.527 C 326.476 391.672,331.144 389.742,336.438 392.154 M696.794 393.480 C 698.414 394.844,700.266 397.228,700.908 398.778 C 701.976 401.355,702.845 401.742,711.063 403.296 C 723.446 405.637,734.363 410.069,745.081 417.107 L 754.157 423.066 757.446 421.033 C 762.331 418.014,767.506 418.352,771.077 421.923 C 774.616 425.462,774.928 429.966,771.969 434.820 L 769.945 438.139 774.411 445.320 C 783.129 459.335,788.136 472.654,790.476 488.052 C 790.924 490.994,791.611 491.819,794.478 492.856 C 801.137 495.264,804.065 502.607,800.434 507.791 C 799.573 509.021,797.130 510.913,795.007 511.997 C 790.873 514.106,790.512 514.797,789.532 522.500 C 788.179 533.135,781.780 548.529,773.864 560.195 C 771.739 563.327,770.010 566.252,770.022 566.695 C 770.034 567.138,770.924 568.625,772.000 570.000 C 775.738 574.778,773.950 582.002,768.316 584.883 C 764.895 586.632,761.778 586.213,757.725 583.459 L 753.986 580.919 749.243 584.553 C 739.003 592.401,715.096 602.000,705.794 602.000 C 703.572 602.000,702.515 602.734,701.203 605.187 C 698.150 610.900,695.449 613.000,691.156 613.000 C 686.675 613.000,684.002 611.124,681.252 606.048 C 679.547 602.901,678.779 602.485,672.566 601.338 C 658.538 598.749,647.577 594.206,635.289 585.888 L 628.078 581.007 624.400 583.504 C 622.376 584.877,619.771 585.998,618.610 585.996 C 614.931 585.990,610.282 582.385,609.019 578.558 C 607.954 575.329,608.087 574.527,610.327 570.705 L 612.822 566.448 608.008 559.113 C 605.361 555.080,601.786 548.724,600.065 544.990 C 596.985 538.308,592.000 520.772,592.000 516.620 C 592.000 515.119,590.662 513.787,587.436 512.076 C 583.035 509.741,580.000 505.833,580.000 502.500 C 580.000 498.947,583.241 494.781,587.457 492.916 C 591.425 491.161,591.827 490.637,592.463 486.397 C 594.606 472.111,600.701 456.498,608.481 445.368 C 610.967 441.813,613.000 438.659,613.000 438.360 C 613.000 438.060,612.100 436.671,611.000 435.273 C 609.708 433.631,609.000 431.216,609.000 428.454 C 609.000 424.907,609.524 423.737,612.077 421.589 C 615.872 418.395,620.715 418.201,624.395 421.096 C 627.481 423.523,628.099 423.364,635.770 418.161 C 647.211 410.400,662.763 404.213,675.286 402.440 C 679.488 401.845,680.241 401.360,681.449 398.469 C 684.659 390.786,691.103 388.691,696.794 393.480 M316.000 437.467 C 292.500 443.442,273.022 463.508,267.434 487.500 C 265.244 496.901,265.923 513.926,268.850 523.000 C 275.121 542.439,292.698 560.000,312.000 566.111 C 321.410 569.090,336.619 569.730,346.379 567.559 C 368.470 562.644,387.476 545.384,394.658 523.715 C 397.083 516.399,397.380 514.023,397.377 502.000 C 397.373 489.983,397.085 487.694,394.757 481.165 C 390.982 470.580,386.461 463.457,378.468 455.500 C 370.537 447.605,361.579 441.958,352.000 438.813 C 343.701 436.089,324.276 435.363,316.000 437.467 M675.000 437.576 C 661.252 441.187,646.506 451.228,638.524 462.414 C 629.081 475.648,625.468 487.124,625.592 503.500 C 625.662 512.731,626.115 515.787,628.411 522.500 C 632.489 534.422,636.406 540.581,645.916 550.022 C 659.223 563.232,672.979 568.943,691.590 568.983 C 718.997 569.041,744.416 550.889,753.740 524.599 C 755.748 518.937,756.353 514.970,756.730 505.000 C 757.281 490.431,755.983 483.852,750.219 472.000 C 742.834 456.817,724.346 441.973,707.356 437.586 C 699.668 435.602,682.539 435.596,675.000 437.576 M539.313 562.334 C 570.099 570.436,595.450 589.695,611.270 617.000 C 622.067 635.635,627.884 664.374,625.091 685.281 C 618.150 737.222,578.622 777.809,527.500 785.486 C 514.940 787.373,509.063 787.373,496.500 785.487 C 468.099 781.225,445.041 768.906,426.687 748.190 C 399.371 717.357,391.072 676.048,404.112 635.819 C 409.487 619.234,418.918 604.310,432.213 591.347 C 448.876 575.101,468.754 564.775,491.500 560.549 C 504.108 558.207,526.857 559.056,539.313 562.334 M504.239 589.278 C 488.708 595.181,484.989 614.881,497.355 625.739 C 506.952 634.164,521.334 632.008,528.580 621.058 C 532.088 615.757,532.959 606.823,530.477 601.592 C 528.391 597.197,523.971 592.554,519.840 590.417 C 515.813 588.335,508.186 587.778,504.239 589.278 M548.597 606.228 C 549.311 612.307,547.668 621.728,544.965 627.052 C 543.973 629.006,541.071 632.930,538.515 635.772 C 526.011 649.679,504.463 652.064,488.974 641.254 C 478.795 634.150,473.037 622.606,473.012 609.250 C 473.005 605.813,472.741 603.000,472.424 603.000 C 472.107 603.000,469.291 604.968,466.165 607.373 C 456.514 614.799,443.745 629.288,441.349 635.532 C 440.922 636.647,441.461 636.728,444.153 635.956 C 458.068 631.965,476.623 640.904,483.764 655.039 C 489.813 667.011,490.069 677.617,484.597 689.569 C 478.181 703.583,461.467 713.119,446.614 711.241 C 443.499 710.847,442.892 711.022,443.559 712.125 C 448.118 719.665,459.018 731.593,467.437 738.256 L 472.500 742.262 473.157 733.766 C 474.281 719.225,481.770 707.990,494.708 701.435 C 499.967 698.770,501.421 698.500,510.500 698.500 C 519.208 698.500,521.211 698.837,526.000 701.110 C 534.464 705.127,540.408 711.023,544.655 719.617 C 547.934 726.251,548.363 727.995,548.427 734.951 L 548.500 742.799 551.361 741.150 C 557.179 737.795,567.680 728.195,573.750 720.682 C 577.188 716.427,580.000 712.508,580.000 711.973 C 580.000 711.429,576.706 711.000,572.538 711.000 C 562.294 711.000,555.569 708.347,547.965 701.307 C 543.897 697.541,540.975 693.670,538.780 689.142 C 535.884 683.165,535.562 681.599,535.567 673.500 C 535.571 666.479,536.075 663.236,537.857 658.753 C 541.042 650.741,548.528 642.850,556.811 638.774 C 562.876 635.789,564.284 635.500,572.732 635.500 C 577.830 635.500,582.000 635.207,582.000 634.848 C 582.000 634.490,578.909 630.215,575.131 625.348 C 568.510 616.821,557.512 606.463,551.065 602.684 L 547.967 600.867 548.597 606.228 M440.907 654.326 C 429.751 660.214,425.654 674.321,432.274 684.045 C 433.498 685.843,436.213 688.693,438.306 690.378 C 441.538 692.978,443.137 693.499,448.893 693.824 C 454.306 694.130,456.493 693.789,459.740 692.133 C 467.789 688.026,472.908 678.336,471.484 669.903 C 469.165 656.177,453.002 647.943,440.907 654.326 M564.459 653.880 C 559.989 655.910,555.417 660.781,553.348 665.718 C 548.674 676.873,556.636 691.255,568.947 693.895 C 581.280 696.540,592.477 688.378,594.583 675.208 C 595.433 669.889,593.595 664.666,589.129 659.713 C 582.475 652.332,572.867 650.060,564.459 653.880 M502.000 717.068 C 493.828 720.743,489.606 728.193,490.186 737.913 C 490.887 749.648,497.862 756.791,509.553 757.747 C 514.354 758.140,516.421 757.822,519.553 756.213 C 530.884 750.387,535.097 738.045,529.515 727.029 C 524.188 716.518,512.573 712.313,502.000 717.068 " stroke="none" fill="black" fill-rule="evenodd"/></svg>