<svg id="svg" version="1.1" width="523" height="518" viewBox="0 0 523 518" xmlns="http://www.w3.org/2000/svg"><path d="M184.500 20.689 C 178.558 23.876,166.535 33.568,158.020 42.034 C 127.627 72.254,111.987 115.663,115.974 158.736 C 118.097 181.673,125.440 203.666,137.931 224.500 C 143.846 234.365,147.147 242.812,149.549 254.235 C 152.102 266.371,151.204 274.311,146.003 285.592 C 142.704 292.745,137.850 298.901,124.758 312.531 C 115.531 322.138,107.000 332.151,107.000 333.376 C 107.000 333.700,105.291 336.785,103.202 340.232 C 97.222 350.100,94.423 356.791,91.612 367.940 C 89.403 376.697,89.002 380.473,89.015 392.398 C 89.030 406.950,90.112 413.899,94.170 425.500 C 105.420 457.668,133.742 482.504,167.200 489.542 C 177.758 491.763,348.533 491.702,359.128 489.473 C 374.668 486.204,393.219 476.775,405.335 465.986 C 416.444 456.094,427.225 439.690,432.273 425.000 C 439.800 403.096,440.389 387.114,434.429 366.500 C 428.388 345.603,421.683 335.302,400.585 314.500 C 391.583 305.625,382.649 295.828,380.522 292.500 C 367.972 272.863,369.398 251.441,384.912 226.559 C 401.883 199.341,408.994 175.407,408.994 145.500 C 408.994 115.306,400.987 88.795,384.228 63.500 C 376.010 51.096,357.939 32.764,346.000 24.719 L 337.500 18.991 262.500 19.036 C 195.539 19.075,187.178 19.253,184.500 20.689 M334.235 43.510 C 358.074 59.134,377.696 89.125,384.672 120.602 C 386.875 130.546,387.160 158.306,385.157 168.000 C 374.968 217.323,340.834 253.682,292.500 266.696 C 283.250 269.186,281.000 269.391,262.500 269.429 C 241.583 269.471,238.715 269.070,222.847 263.879 C 193.762 254.363,166.145 231.087,152.267 204.391 C 130.381 162.289,132.689 115.151,158.554 76.000 C 166.861 63.426,185.760 44.857,192.923 42.231 C 194.019 41.829,225.303 41.323,262.443 41.107 L 329.971 40.715 334.235 43.510 M222.239 69.653 C 212.743 74.334,208.860 85.670,213.550 95.021 C 217.267 102.432,226.659 106.977,234.112 104.970 C 247.445 101.380,253.137 87.020,245.560 76.087 C 240.552 68.860,229.842 65.905,222.239 69.653 M289.000 69.118 C 282.752 71.597,277.000 79.928,277.000 86.500 C 277.000 97.703,289.842 108.124,299.746 104.958 C 309.934 101.701,314.375 96.121,314.375 86.579 C 314.374 80.311,312.820 76.602,308.526 72.623 C 303.934 68.369,294.954 66.757,289.000 69.118 M235.923 80.589 C 239.874 83.914,240.079 88.357,236.460 92.260 C 231.191 97.942,221.600 94.224,221.600 86.500 C 221.600 78.958,229.910 75.529,235.923 80.589 M301.644 80.370 C 307.413 85.332,303.595 95.000,295.867 95.000 C 291.988 95.000,287.000 90.218,287.000 86.500 C 287.000 82.782,291.988 78.000,295.867 78.000 C 297.604 78.000,300.060 79.008,301.644 80.370 M181.500 107.702 C 175.580 109.726,166.090 118.590,163.421 124.590 C 162.258 127.204,161.665 131.152,161.634 136.500 C 161.593 143.393,161.991 145.310,164.507 150.355 C 174.307 170.002,200.582 173.642,214.931 157.341 C 228.507 141.918,224.173 118.988,205.816 109.122 C 199.970 105.979,188.497 105.309,181.500 107.702 M252.666 107.668 C 247.407 109.492,238.763 116.624,236.495 121.010 C 230.297 132.996,230.777 144.002,237.955 154.434 C 242.541 161.100,248.298 164.912,256.890 166.974 C 271.086 170.379,286.570 161.744,291.955 147.419 C 297.418 132.884,291.066 116.762,276.879 109.151 C 271.007 106.001,259.506 105.297,252.666 107.668 M323.666 107.674 C 317.483 109.811,310.217 116.348,306.562 123.063 C 304.081 127.621,303.700 129.400,303.701 136.411 C 303.702 145.785,306.570 153.285,312.213 158.676 C 327.890 173.652,351.913 169.381,362.161 149.795 C 363.962 146.352,364.417 143.814,364.451 137.000 C 364.518 123.841,359.897 115.872,348.500 109.492 C 342.110 105.914,331.093 105.108,323.666 107.674 M198.956 122.977 C 204.644 125.880,207.429 130.320,207.429 136.491 C 207.429 146.217,201.276 152.000,190.927 152.000 C 186.003 152.000,185.380 151.711,181.432 147.590 C 175.791 141.703,174.874 136.840,178.157 130.222 C 182.272 121.928,190.964 118.900,198.956 122.977 M271.895 123.925 C 275.669 126.613,279.000 132.747,279.000 137.010 C 279.000 142.821,273.497 150.276,268.196 151.648 C 266.928 151.976,263.623 152.026,260.850 151.760 C 254.475 151.147,249.689 146.755,247.864 139.842 C 246.727 135.536,246.822 134.820,249.126 130.342 C 253.755 121.345,264.155 118.414,271.895 123.925 M340.655 122.641 C 346.400 125.367,349.468 130.335,349.459 136.900 C 349.446 146.941,342.923 152.656,332.464 151.789 C 327.066 151.341,326.291 150.959,322.798 147.022 C 319.379 143.170,319.000 142.193,319.000 137.239 C 319.000 125.071,330.062 117.614,340.655 122.641 M217.000 170.876 C 198.866 176.843,189.768 194.614,196.135 211.631 C 204.146 233.044,232.230 238.492,247.758 221.647 C 265.380 202.529,252.537 171.551,226.500 170.370 C 222.650 170.196,218.375 170.423,217.000 170.876 M290.357 172.021 C 276.462 177.530,267.925 192.711,270.966 206.500 C 273.261 216.902,278.647 224.005,287.645 228.493 C 292.652 230.991,294.658 231.413,301.500 231.410 C 311.345 231.405,317.438 228.644,324.199 221.123 C 337.788 206.009,332.724 181.344,314.295 172.892 C 307.421 169.739,297.063 169.362,290.357 172.021 M231.698 187.096 C 236.573 189.456,241.000 195.846,241.000 200.522 C 241.000 204.837,237.246 211.686,233.679 213.878 C 228.406 217.119,223.685 217.513,218.783 215.120 C 205.842 208.804,206.254 192.309,219.500 186.414 C 223.746 184.524,226.730 184.691,231.698 187.096 M307.599 186.905 C 321.059 193.018,319.401 212.122,305.076 215.980 C 299.696 217.428,293.878 215.569,289.504 211.004 C 283.878 205.132,285.140 192.759,291.811 188.388 C 297.376 184.742,301.899 184.317,307.599 186.905 M358.500 317.630 C 368.785 320.693,375.776 324.221,384.761 330.883 C 418.607 355.978,425.819 404.178,400.714 437.500 C 391.684 449.487,384.366 455.639,372.000 461.640 C 356.027 469.393,360.564 469.102,260.500 468.783 L 171.500 468.500 165.000 466.198 C 151.911 461.563,143.634 456.620,134.661 448.082 C 124.654 438.560,118.975 429.559,114.336 415.868 C 111.719 408.147,111.500 406.339,111.500 392.500 C 111.500 373.095,113.847 364.746,123.429 350.060 C 131.899 337.079,143.990 327.107,158.682 320.986 C 172.805 315.102,172.389 315.124,266.000 315.344 C 349.448 315.540,351.668 315.595,358.500 317.630 M177.870 345.997 C 171.215 347.687,162.862 351.930,157.728 356.228 C 152.632 360.494,144.000 372.528,144.000 375.366 C 144.000 376.200,143.603 377.128,143.117 377.428 C 142.631 377.728,141.714 381.527,141.079 385.871 C 136.726 415.641,158.773 441.000,189.009 441.000 C 208.188 441.000,223.845 430.965,232.160 413.342 C 244.305 387.605,231.697 357.670,204.500 347.665 C 198.760 345.554,183.405 344.592,177.870 345.997 M326.773 346.080 C 318.423 348.050,309.941 352.873,303.681 359.212 C 296.373 366.613,292.439 374.162,290.168 385.145 C 288.656 392.461,288.663 393.553,290.282 401.418 C 295.264 425.623,313.798 441.020,337.915 440.989 C 350.324 440.974,358.999 437.845,369.187 429.710 C 373.006 426.661,379.611 417.734,381.921 412.500 C 389.583 395.136,385.942 374.693,372.627 360.310 C 361.272 348.045,342.776 342.305,326.773 346.080 M199.631 364.135 C 206.583 366.736,212.666 372.156,216.554 379.212 C 219.142 383.908,219.465 385.451,219.433 393.000 C 219.392 403.043,217.340 408.217,210.717 414.975 C 204.636 421.181,197.713 424.000,188.554 424.000 C 179.543 424.000,173.950 421.839,167.446 415.843 C 159.355 408.386,155.765 398.042,157.818 388.104 C 159.436 380.269,161.499 376.406,167.006 370.899 C 175.483 362.421,188.075 359.811,199.631 364.135 M348.712 364.141 C 360.139 368.368,369.016 380.910,368.989 392.788 C 368.948 410.611,355.424 424.000,337.461 424.000 C 328.540 424.000,322.940 421.822,316.376 415.799 C 299.392 400.214,304.959 372.469,326.781 363.939 C 333.206 361.427,341.584 361.504,348.712 364.141 " stroke="none" fill="black" fill-rule="evenodd"/></svg>