<svg id="svg" version="1.1" width="509" height="501" viewBox="0 0 509 501" xmlns="http://www.w3.org/2000/svg"><path d="M154.000 53.521 C 122.739 58.186,96.988 71.116,74.404 93.489 C 63.709 104.083,57.421 111.982,49.318 125.000 C 34.021 149.578,23.843 177.400,19.453 206.646 C 17.740 218.057,17.505 249.735,19.054 260.307 C 22.089 281.013,23.700 288.339,28.772 304.500 C 32.114 315.146,32.764 316.912,36.506 325.500 C 58.789 376.644,97.151 417.716,146.000 442.732 C 152.325 445.971,159.300 449.351,161.500 450.244 C 207.718 468.997,250.869 473.521,298.500 464.606 C 362.164 452.689,418.791 413.768,453.910 357.788 C 459.647 348.643,468.259 332.334,471.487 324.500 C 472.394 322.300,473.535 319.600,474.023 318.500 C 476.972 311.854,483.138 290.899,485.499 279.500 C 491.012 252.886,491.250 214.442,486.038 192.500 C 485.515 190.300,484.397 185.575,483.553 182.000 C 479.682 165.608,473.036 147.997,464.684 132.000 C 444.051 92.481,413.356 66.270,376.144 56.392 C 360.267 52.177,355.146 51.994,256.757 52.126 C 186.325 52.221,160.352 52.573,154.000 53.521 M355.973 71.544 C 375.116 74.649,390.800 81.437,407.000 93.629 C 424.039 106.453,435.548 120.733,449.208 146.000 C 457.268 160.909,464.947 185.310,468.561 207.500 C 470.757 220.982,470.723 251.676,468.497 266.000 C 466.933 276.062,462.951 293.743,461.064 299.000 C 460.571 300.375,458.961 304.875,457.487 309.000 C 439.101 360.445,399.489 404.701,350.254 428.806 C 321.861 442.708,294.799 449.482,263.000 450.646 C 199.287 452.978,141.737 429.633,98.117 383.761 C 48.497 331.579,27.600 256.269,44.491 190.500 C 52.143 160.709,68.782 130.162,88.647 109.437 C 107.817 89.438,133.689 75.658,159.677 71.604 C 173.481 69.450,342.744 69.399,355.973 71.544 M165.000 106.132 C 162.525 106.637,157.815 107.764,154.534 108.637 C 134.151 114.061,114.858 129.085,99.419 151.559 C 95.460 157.322,85.944 175.451,84.753 179.500 C 84.430 180.600,82.835 185.325,81.209 190.000 C 70.480 220.856,71.136 256.331,83.102 292.442 C 101.781 348.807,148.249 393.201,205.500 409.376 C 223.753 414.533,230.998 415.433,254.500 415.463 C 273.619 415.487,278.006 415.186,288.000 413.169 C 351.053 400.439,400.795 358.698,424.052 299.000 C 432.049 278.473,435.338 259.866,435.278 235.500 C 435.196 202.393,426.886 174.133,409.260 147.022 C 397.601 129.091,381.370 115.628,364.000 109.481 C 351.434 105.035,350.453 104.994,257.685 105.107 C 208.579 105.167,167.506 105.621,165.000 106.132 M207.795 123.878 C 219.236 129.762,225.155 139.296,225.210 151.929 C 225.237 158.153,224.755 160.642,222.665 165.059 C 216.473 178.148,201.626 185.971,188.686 182.963 C 173.152 179.353,162.976 167.173,163.015 152.239 C 163.052 138.282,172.712 125.237,185.500 121.877 C 191.099 120.406,203.147 121.487,207.795 123.878 M322.018 122.695 C 328.961 124.937,336.978 132.268,340.099 139.230 C 343.366 146.516,343.374 158.426,340.117 165.163 C 333.887 178.044,318.984 185.869,306.122 183.012 C 295.241 180.595,287.574 174.587,283.137 165.000 C 277.379 152.561,279.824 139.851,289.874 129.969 C 298.573 121.417,310.031 118.824,322.018 122.695 M188.015 139.752 C 184.273 141.629,180.044 147.994,180.016 151.790 C 179.990 155.452,183.805 161.905,187.290 164.095 C 191.243 166.578,198.452 166.249,202.264 163.411 C 208.627 158.674,210.044 149.582,205.297 143.941 C 200.478 138.214,194.142 136.678,188.015 139.752 M304.329 140.519 C 301.247 142.366,299.710 144.191,298.443 147.510 C 296.823 151.751,296.823 152.249,298.443 156.489 C 301.364 164.138,308.173 167.463,316.070 165.097 C 321.579 163.447,325.000 158.644,325.000 152.560 C 325.000 146.687,322.819 142.828,317.954 140.094 C 313.070 137.349,309.428 137.463,304.329 140.519 M144.431 186.488 C 170.546 192.723,187.095 218.675,180.596 243.201 C 178.569 250.850,177.379 253.589,173.856 258.710 C 164.219 272.717,146.529 281.330,131.000 279.577 C 105.560 276.705,87.978 257.514,88.011 232.654 C 88.029 219.166,92.558 208.203,101.896 199.045 C 113.542 187.624,129.482 182.918,144.431 186.488 M263.175 186.428 C 280.121 190.479,293.147 202.095,298.583 218.000 C 300.888 224.746,301.169 240.683,299.077 246.000 C 294.884 256.657,290.884 262.657,283.875 268.808 C 279.058 273.033,268.834 277.727,261.463 279.097 C 238.917 283.287,215.229 268.348,208.503 245.698 C 206.476 238.874,206.570 225.591,208.693 218.865 C 216.000 195.707,240.636 181.039,263.175 186.428 M382.431 186.488 C 399.773 190.628,412.031 201.842,417.486 218.554 C 423.059 235.627,418.901 252.534,405.853 265.851 C 390.582 281.437,365.831 284.093,347.324 272.131 C 336.131 264.896,329.311 254.554,326.376 240.361 C 324.926 233.350,324.924 231.961,326.349 224.854 C 328.498 214.139,332.383 206.654,339.500 199.517 C 351.298 187.686,367.216 182.854,382.431 186.488 M128.625 214.424 C 123.157 216.437,118.320 221.519,116.415 227.255 C 115.018 231.461,114.969 232.817,116.069 236.747 C 118.418 245.137,126.858 252.030,134.710 251.972 C 140.137 251.931,146.986 248.078,150.500 243.088 C 153.068 239.441,153.500 237.917,153.500 232.500 C 153.500 227.080,153.070 225.563,150.500 221.925 C 145.452 214.779,136.241 211.620,128.625 214.424 M247.637 214.465 C 243.299 216.011,238.527 220.150,236.411 224.200 C 235.635 225.686,235.000 229.533,235.000 232.750 C 235.000 240.239,238.344 245.781,245.071 249.442 C 250.656 252.482,255.275 252.676,261.167 250.121 C 278.071 242.788,276.307 218.968,258.500 214.104 C 253.474 212.731,252.401 212.767,247.637 214.465 M366.625 214.424 C 361.157 216.437,356.320 221.519,354.415 227.255 C 353.018 231.461,352.969 232.817,354.069 236.747 C 356.420 245.144,364.875 252.044,372.710 251.959 C 378.334 251.898,384.996 248.183,388.486 243.164 C 391.064 239.455,391.500 237.912,391.500 232.500 C 391.500 227.080,391.070 225.563,388.500 221.925 C 383.452 214.779,374.241 211.620,366.625 214.424 M204.661 286.398 C 214.242 288.949,220.903 292.716,227.348 299.226 C 244.105 316.155,246.083 340.047,232.351 359.649 C 226.054 368.637,218.288 374.161,207.119 377.595 C 200.808 379.535,187.516 379.496,180.710 377.518 C 169.723 374.324,158.649 365.121,152.749 354.279 C 136.050 323.599,158.622 285.757,194.000 285.122 C 197.025 285.068,201.823 285.642,204.661 286.398 M322.000 286.399 C 330.616 288.480,336.798 291.880,343.695 298.331 C 363.112 316.495,363.533 346.522,344.635 365.393 C 334.948 375.067,325.235 379.100,311.628 379.100 C 269.044 379.100,248.339 327.299,279.333 298.305 C 291.450 286.970,306.719 282.710,322.000 286.399 M186.500 314.890 C 170.395 322.323,171.678 344.129,188.601 350.592 C 192.590 352.115,193.854 352.187,197.860 351.121 C 203.915 349.509,206.398 347.813,210.020 342.814 C 212.525 339.356,213.000 337.760,213.000 332.800 C 213.000 329.342,212.336 325.617,211.396 323.799 C 206.629 314.581,195.668 310.659,186.500 314.890 M305.914 313.900 C 295.258 317.359,289.413 329.477,293.761 339.096 C 294.856 341.518,296.773 344.564,298.021 345.864 C 300.953 348.918,307.663 351.950,311.554 351.978 C 316.336 352.012,324.132 347.522,327.438 342.829 C 333.325 334.471,330.526 321.579,321.633 316.082 C 317.765 313.692,309.913 312.602,305.914 313.900 " stroke="none" fill="black" fill-rule="evenodd"/></svg>